<svg width="24" height="25" viewBox="0 0 24 25" fill="none" xmlns="http://www.w3.org/2000/svg">
<path d="M11 21.25C5.62 21.25 1.25 16.88 1.25 11.5C1.25 6.12 5.62 1.75 11 1.75C16.38 1.75 20.75 6.12 20.75 11.5C20.75 16.88 16.38 21.25 11 21.25ZM11 3.25C6.45 3.25 2.75 6.95 2.75 11.5C2.75 16.05 6.45 19.75 11 19.75C15.55 19.75 19.25 16.05 19.25 11.5C19.25 6.95 15.55 3.25 11 3.25ZM20.16 23.29C20.08 23.29 20 23.28 19.93 23.27C19.46 23.21 18.61 22.89 18.13 21.46C17.88 20.71 17.97 19.96 18.38 19.39C18.79 18.82 19.48 18.5 20.27 18.5C21.29 18.5 22.09 18.89 22.45 19.58C22.81 20.27 22.71 21.15 22.14 22C21.43 23.07 20.66 23.29 20.16 23.29ZM19.56 20.99C19.73 21.51 19.97 21.77 20.13 21.79C20.29 21.81 20.59 21.62 20.9 21.17C21.19 20.74 21.21 20.43 21.14 20.29C21.07 20.15 20.79 20 20.27 20C19.96 20 19.73 20.1 19.6 20.27C19.48 20.44 19.46 20.7 19.56 20.99Z" fill="#525252"/>
</svg>